<svg version="1.1" xmlns="http://www.w3.org/2000/svg" width="32" height="32" viewBox="0 0 32 32">
<path d="M26 2h-16.75c-0.138 0-0.25 0.112-0.25 0.25v0 1.75c0 0.138 0.112 0.25 0.25 0.25h15.5v21.5c0 0.138 0.112 0.25 0.25 0.25h1.75c0.138 0 0.25-0.112 0.25-0.25v0-22.75c0-0.552-0.448-1-1-1v0zM22 6h-16c-0.552 0-1 0.448-1 1v0 16.584c0.001 0.276 0.113 0.525 0.294 0.706l5.416 5.416c0.067 0.066 0.142 0.123 0.225 0.169l0.005 0.003v0.060h0.132c0.11 0.040 0.224 0.062 0.344 0.062h10.584c0.552 0 1-0.448 1-1v0-22c0-0.552-0.448-1-1-1v0zM10.938 26.756l-2.692-2.694h2.694v2.694zM20.75 27.75h-7.812v-4.438c0-0.69-0.56-1.25-1.25-1.25v0h-4.438v-13.812h13.5v19.5z"></path>
</svg>
