<svg version="1.1" xmlns="http://www.w3.org/2000/svg" width="32" height="32" viewBox="0 0 32 32">
<path d="M16 2c-7.732 0-14 6.268-14 14s6.268 14 14 14v0c7.732 0 14-6.268 14-14s-6.268-14-14-14v0zM16 24.126c-0.69 0-1.25-0.56-1.25-1.25s0.56-1.25 1.25-1.25v0c0.69 0 1.25 0.56 1.25 1.25s-0.56 1.25-1.25 1.25v0zM17.966 17.266c-0.567 0.223-0.962 0.765-0.966 1.4v0.708c0 0.001 0 0.001 0 0.002 0 0.138-0.112 0.25-0.25 0.25 0 0 0 0 0 0h-1.5c0 0 0 0 0 0-0.138 0-0.25-0.112-0.25-0.25 0-0.001 0-0.001 0-0.002v0-0.67c-0-0.013-0-0.027-0-0.042 0-1.482 0.923-2.749 2.226-3.256l0.024-0.008c1.062-0.41 1.75-1.3 1.75-2.272 0-1.38-1.346-2.5-3-2.5s-3 1.12-3 2.5v0.236c0 0.138-0.112 0.25-0.25 0.25v0h-1.5c-0.138 0-0.25-0.112-0.25-0.25v0-0.238c0-1.228 0.538-2.374 1.512-3.228 0.916-0.791 2.118-1.272 3.433-1.272 0.019 0 0.039 0 0.058 0l-0.003-0c1.312 0 2.55 0.454 3.488 1.272 0.974 0.854 1.512 2 1.512 3.228 0 1.808-1.19 3.432-3.034 4.14z"></path>
</svg>
