<svg version="1.1" xmlns="http://www.w3.org/2000/svg" width="32" height="32" viewBox="0 0 32 32">
<path fill="#e6f7ff" d="M16 0c-8.837 0.001-16 7.164-16 16.001s7.164 16.001 16.001 16.001c0 0 0.001 0 0.001 0h-0c8.837-0.001 16-7.164 16-16.001s-7.164-16.001-16.001-16.001c-0 0-0.001 0-0.001 0h0z"></path>
<path fill="#40a9ff" d="M16.72 24.63c1.412 0 2.81-0.268 4.188-0.802 1.38-0.536 2.432-1.154 3.16-1.858v-6.844h-7.48v2.896h3.974v2.18c-0.541 0.413-1.162 0.762-1.829 1.019l-0.051 0.017c-0.73 0.286-1.46 0.428-2.186 0.428-1.468 0-2.656-0.51-3.562-1.53s-1.36-2.548-1.36-4.588c0-1.89 0.448-3.316 1.342-4.276s2.1-1.442 3.616-1.442c1 0 1.834 0.244 2.5 0.732 0.67 0.488 1.124 1.154 1.366 2l3.446-0.646c-0.344-1.58-1.116-2.814-2.314-3.71-1.2-0.894-2.866-1.34-5-1.34-1.64 0-3.010 0.284-4.112 0.854-1.411 0.716-2.54 1.815-3.272 3.16l-0.020 0.040c-0.75 1.39-1.126 2.98-1.126 4.77 0 1.648 0.336 3.172 1.008 4.576 0.672 1.4 1.676 2.48 3.012 3.234s2.9 1.13 4.7 1.13z"></path>
</svg>
