<svg version="1.1" xmlns="http://www.w3.org/2000/svg" width="32" height="32" viewBox="0 0 32 32">
<path d="M16 2c7.732 0 14 6.268 14 14s-6.268 14-14 14v0c-7.732 0-14-6.268-14-14s6.268-14 14-14v0zM16 4.376c-6.327 0.121-11.41 5.279-11.41 11.624s5.083 11.503 11.399 11.624l0.011 0c6.327-0.121 11.41-5.279 11.41-11.624s-5.083-11.503-11.399-11.624l-0.011-0zM16.754 8.75c0.136 0 0.25 0.112 0.25 0.25v7.734l4.456 3.222c0.112 0.080 0.136 0.234 0.056 0.35l-0.894 1.22c-0.046 0.061-0.119 0.101-0.201 0.101-0.056 0-0.108-0.018-0.149-0.049l0.001 0-5.168-3.768c-0.063-0.046-0.104-0.119-0.104-0.202 0-0.001 0-0.001 0-0.002v0-8.606c0-0.138 0.112-0.25 0.25-0.25z"></path>
</svg>
