<svg version="1.1" xmlns="http://www.w3.org/2000/svg" width="32" height="32" viewBox="0 0 32 32">
<path d="M17.62 16l8.2-9.78c0.036-0.043 0.059-0.099 0.059-0.16 0-0.136-0.11-0.247-0.246-0.248h-2.494c-0.154 0.002-0.291 0.071-0.383 0.179l-0.001 0.001-6.766 8.062-6.768-8.064c-0.092-0.109-0.229-0.178-0.383-0.178-0.001 0-0.001 0-0.002 0h-2.492c-0.001 0-0.001 0-0.002 0-0.137 0-0.248 0.111-0.248 0.248 0 0.062 0.023 0.119 0.061 0.162l-0-0 8.202 9.778-8.202 9.78c-0.036 0.043-0.059 0.099-0.059 0.16 0 0.137 0.111 0.248 0.248 0.248 0 0 0 0 0.001 0h2.494c0.154-0.002 0.291-0.071 0.383-0.179l0.001-0.001 6.766-8.064 6.766 8.066c0.092 0.109 0.229 0.178 0.383 0.178 0.001 0 0.001 0 0.002 0h2.494c0.001 0 0.001 0 0.002 0 0.137 0 0.248-0.111 0.248-0.248 0-0.062-0.023-0.119-0.061-0.162l0 0-8.204-9.778z"></path>
</svg>
