<svg version="1.1" xmlns="http://www.w3.org/2000/svg" width="32" height="32" viewBox="0 0 32 32">
<path d="M16 30c-0.229 0-0.458-0.006-0.687-0.017s-0.457-0.028-0.685-0.051c-0.228-0.023-0.455-0.051-0.682-0.084s-0.452-0.073-0.677-0.117c-0.225-0.045-0.448-0.095-0.67-0.151s-0.443-0.117-0.662-0.183-0.437-0.138-0.652-0.216c-0.216-0.077-0.429-0.16-0.641-0.247s-0.421-0.181-0.628-0.279c-0.207-0.098-0.412-0.201-0.614-0.309s-0.401-0.221-0.598-0.339-0.39-0.24-0.581-0.368c-0.191-0.127-0.378-0.259-0.562-0.396s-0.365-0.277-0.542-0.423-0.351-0.295-0.52-0.449c-0.17-0.154-0.336-0.312-0.498-0.474s-0.32-0.328-0.474-0.498-0.303-0.343-0.449-0.52c-0.145-0.177-0.286-0.358-0.423-0.542s-0.268-0.371-0.396-0.562c-0.127-0.191-0.25-0.384-0.368-0.581s-0.231-0.396-0.339-0.598c-0.108-0.202-0.211-0.407-0.309-0.614s-0.191-0.417-0.278-0.628c-0.088-0.212-0.17-0.425-0.247-0.641s-0.149-0.433-0.216-0.652c-0.067-0.219-0.128-0.44-0.183-0.662s-0.106-0.446-0.151-0.67c-0.045-0.225-0.084-0.45-0.117-0.677s-0.062-0.454-0.084-0.682c-0.022-0.228-0.039-0.456-0.051-0.685s-0.017-0.458-0.017-0.687c0-0.229 0.006-0.458 0.017-0.687s0.028-0.457 0.051-0.685c0.022-0.228 0.050-0.455 0.084-0.682s0.073-0.452 0.117-0.677c0.045-0.225 0.095-0.448 0.151-0.67s0.117-0.443 0.183-0.662c0.067-0.219 0.138-0.437 0.216-0.652s0.16-0.429 0.247-0.641c0.088-0.212 0.18-0.421 0.278-0.628s0.201-0.412 0.309-0.614c0.108-0.202 0.221-0.401 0.339-0.598s0.24-0.39 0.368-0.581c0.127-0.191 0.259-0.378 0.396-0.562s0.277-0.365 0.423-0.542c0.145-0.177 0.295-0.351 0.449-0.52s0.312-0.336 0.474-0.498c0.162-0.162 0.328-0.32 0.498-0.474s0.343-0.303 0.52-0.449c0.177-0.145 0.358-0.286 0.542-0.423s0.371-0.268 0.562-0.396c0.191-0.127 0.384-0.25 0.581-0.368s0.396-0.231 0.598-0.339c0.202-0.108 0.407-0.211 0.614-0.309s0.417-0.191 0.628-0.278c0.212-0.088 0.425-0.17 0.641-0.247s0.433-0.149 0.652-0.216c0.219-0.067 0.44-0.128 0.662-0.183s0.446-0.106 0.67-0.151c0.225-0.045 0.45-0.084 0.677-0.117s0.454-0.062 0.682-0.084c0.228-0.022 0.456-0.039 0.685-0.051s0.458-0.017 0.687-0.017c0.229 0 0.458 0.006 0.687 0.017s0.457 0.028 0.685 0.051c0.228 0.022 0.455 0.050 0.682 0.084s0.452 0.073 0.677 0.117c0.225 0.045 0.448 0.095 0.67 0.151s0.443 0.117 0.662 0.183c0.219 0.067 0.437 0.138 0.652 0.216s0.429 0.16 0.641 0.247c0.212 0.088 0.421 0.18 0.628 0.278s0.412 0.201 0.614 0.309c0.202 0.108 0.401 0.221 0.598 0.339s0.39 0.24 0.581 0.368c0.191 0.127 0.378 0.259 0.562 0.396s0.365 0.277 0.542 0.423c0.177 0.145 0.35 0.295 0.52 0.449s0.336 0.312 0.498 0.474c0.162 0.162 0.32 0.328 0.474 0.498s0.303 0.343 0.449 0.52c0.145 0.177 0.286 0.358 0.423 0.542s0.268 0.371 0.396 0.562 0.25 0.384 0.368 0.581c0.118 0.197 0.231 0.396 0.339 0.598s0.211 0.407 0.309 0.614c0.098 0.207 0.191 0.417 0.279 0.628s0.17 0.425 0.247 0.641 0.149 0.433 0.216 0.652c0.067 0.219 0.128 0.44 0.183 0.662s0.106 0.446 0.151 0.67 0.084 0.45 0.117 0.677c0.034 0.227 0.062 0.454 0.084 0.682s0.039 0.456 0.051 0.685c0.011 0.229 0.017 0.458 0.017 0.687s-0.006 0.458-0.017 0.687c-0.011 0.229-0.028 0.457-0.051 0.685s-0.051 0.455-0.084 0.682-0.073 0.452-0.117 0.677c-0.045 0.225-0.095 0.448-0.151 0.67s-0.117 0.443-0.183 0.662-0.138 0.437-0.216 0.652c-0.077 0.216-0.16 0.429-0.247 0.641s-0.181 0.421-0.279 0.628c-0.098 0.207-0.201 0.412-0.309 0.614s-0.221 0.401-0.339 0.598-0.24 0.39-0.368 0.581c-0.127 0.191-0.259 0.378-0.396 0.562s-0.277 0.365-0.423 0.542c-0.145 0.177-0.295 0.35-0.449 0.52s-0.312 0.336-0.474 0.498c-0.162 0.162-0.328 0.32-0.498 0.474s-0.343 0.303-0.52 0.449c-0.177 0.145-0.358 0.286-0.542 0.423s-0.371 0.268-0.562 0.396-0.384 0.25-0.581 0.368c-0.197 0.118-0.396 0.231-0.598 0.339s-0.407 0.211-0.614 0.309c-0.207 0.098-0.417 0.191-0.628 0.279s-0.425 0.17-0.641 0.247-0.433 0.149-0.652 0.216c-0.219 0.067-0.44 0.128-0.662 0.183s-0.446 0.106-0.67 0.151-0.45 0.084-0.677 0.117c-0.227 0.034-0.454 0.062-0.682 0.084s-0.456 0.039-0.685 0.051c-0.229 0.011-5.791-9.983-0.687 0.017zM15.466 20.553l6.581-9.125c0.119-0.166 0-0.397-0.203-0.397h-1.466c-0.322 0-0.622 0.156-0.809 0.416l-4.912 6.813-2.225-3.088c-0.188-0.262-0.491-0.416-0.809-0.416h-1.466c-0.203 0-0.322 0.231-0.203 0.397l3.897 5.4c0.397 0.553 1.219 0.553 1.616 0z"></path>
</svg>
