<svg version="1.1" xmlns="http://www.w3.org/2000/svg" width="32" height="32" viewBox="0 0 32 32">
<path d="M30 16q0 0.344-0.017 0.687t-0.051 0.685-0.084 0.682-0.117 0.677-0.151 0.67-0.183 0.662-0.216 0.652-0.247 0.641-0.279 0.628-0.309 0.614-0.339 0.598-0.368 0.581-0.396 0.562-0.423 0.542-0.449 0.52-0.474 0.498-0.498 0.474-0.52 0.449-0.542 0.423-0.562 0.396-0.581 0.368-0.598 0.339-0.614 0.309-0.628 0.279-0.641 0.247-0.652 0.216-0.662 0.183-0.67 0.151-0.677 0.117-0.682 0.084-0.685 0.051-0.687 0.017-0.687-0.017-0.685-0.051-0.682-0.084-0.677-0.117-0.67-0.151-0.662-0.183-0.652-0.216-0.641-0.247-0.628-0.279-0.614-0.309-0.598-0.339-0.581-0.368-0.562-0.396-0.542-0.423-0.52-0.449-0.498-0.474-0.474-0.498-0.449-0.52-0.423-0.542-0.396-0.562-0.368-0.581-0.339-0.598-0.309-0.614-0.278-0.628-0.247-0.641-0.216-0.652-0.183-0.662-0.151-0.67-0.117-0.677-0.084-0.682-0.051-0.685-0.017-0.687 0.017-0.687 0.051-0.685 0.084-0.682 0.117-0.677 0.151-0.67 0.183-0.662 0.216-0.652 0.247-0.641 0.278-0.628 0.309-0.614 0.339-0.598 0.368-0.581 0.396-0.562 0.423-0.542 0.449-0.52 0.474-0.498 0.498-0.474 0.52-0.449 0.542-0.423 0.562-0.396 0.581-0.368 0.598-0.339 0.614-0.309 0.628-0.278 0.641-0.247 0.652-0.216 0.662-0.183 0.67-0.151 0.677-0.117 0.682-0.084 0.685-0.051 0.687-0.017 0.687 0.017 0.685 0.051 0.682 0.084 0.677 0.117 0.67 0.151 0.662 0.183 0.652 0.216 0.641 0.247 0.628 0.278 0.614 0.309 0.598 0.339 0.581 0.368 0.562 0.396 0.542 0.423 0.52 0.449 0.498 0.474 0.474 0.498 0.449 0.52 0.423 0.542 0.396 0.562 0.368 0.581 0.339 0.598 0.309 0.614 0.279 0.628 0.247 0.641 0.216 0.652 0.183 0.662 0.151 0.67 0.117 0.677 0.084 0.682 0.051 0.685 0.017 0.687zM17.5 10.5c0-0.098-0.010-0.196-0.029-0.293s-0.048-0.19-0.085-0.281c-0.038-0.091-0.084-0.177-0.139-0.259s-0.117-0.158-0.187-0.227c-0.070-0.070-0.145-0.132-0.227-0.187s-0.168-0.101-0.259-0.139c-0.091-0.038-0.185-0.066-0.281-0.085s-0.194-0.029-0.293-0.029c-0.098 0-0.196 0.010-0.293 0.029s-0.19 0.048-0.281 0.085c-0.091 0.038-0.177 0.084-0.259 0.139s-0.158 0.117-0.227 0.187c-0.070 0.070-0.132 0.145-0.187 0.227s-0.101 0.168-0.139 0.259c-0.038 0.091-0.066 0.185-0.085 0.281s-0.029 0.194-0.029 0.293c0 0.098 0.010 0.196 0.029 0.293s0.048 0.19 0.085 0.281c0.038 0.091 0.084 0.177 0.139 0.259s0.117 0.158 0.187 0.227c0.070 0.070 0.145 0.132 0.227 0.187s0.168 0.101 0.259 0.139c0.091 0.038 0.185 0.066 0.281 0.085s0.194 0.029 0.293 0.029c0.098 0 0.196-0.010 0.293-0.029s0.19-0.048 0.281-0.085c0.091-0.038 0.177-0.084 0.259-0.139s0.158-0.117 0.227-0.187c0.070-0.070 0.132-0.145 0.187-0.227s0.101-0.168 0.139-0.259c0.038-0.091 0.066-0.185 0.085-0.281s-5.805-3.694 0.029-0.293zM16.75 23c0.137 0 0.25-0.112 0.25-0.25v-8.5c0-0.137-0.113-0.25-0.25-0.25h-1.5c-0.137 0-0.25 0.113-0.25 0.25v8.5c0 0.138 0.113 0.25 0.25 0.25h1.5z"/>
</svg>
