<svg version="1.1" xmlns="http://www.w3.org/2000/svg" width="32" height="32" viewBox="0 0 32 32">
<path d="M16 1.75c-7.87 0-14.25 6.38-14.25 14.25s6.38 14.25 14.25 14.25v0c7.87 0 14.25-6.38 14.25-14.25s-6.38-14.25-14.25-14.25v0zM21.26 21.415l-2.097-0.010-3.163-3.77-3.159 3.766-2.101 0.010c-0.001 0-0.001 0-0.002 0-0.139 0-0.252-0.113-0.252-0.252 0-0.001 0-0.001 0-0.002v0c0-0.061 0.020-0.118 0.061-0.165l4.135-4.93-4.137-4.926c-0.038-0.044-0.061-0.102-0.061-0.165 0-0.14 0.114-0.254 0.254-0.254v0l2.103 0.008 3.159 3.768 3.159-3.766 2.097-0.008c0.142 0 0.256 0.11 0.256 0.254-0.002 0.062-0.024 0.119-0.061 0.163v0l-4.133 4.928 4.137 4.93c0.038 0.044 0.061 0.102 0.061 0.165 0 0.14-0.114 0.254-0.254 0.254v0z"/>
</svg>
